<mxfile host="app.diagrams.net" agent="Mozilla/5.0 (Windows NT 10.0; Win64; x64) AppleWebKit/537.36 (KHTML, like Gecko) Chrome/135.0.0.0 Safari/537.36" version="26.2.14" pages="3">
  <diagram name="Page-1" id="lzONCV_IcDsmfXTyI49E">
    <mxGraphModel dx="1358" dy="869" grid="1" gridSize="10" guides="1" tooltips="1" connect="1" arrows="1" fold="1" page="1" pageScale="1" pageWidth="850" pageHeight="1100" math="0" shadow="0">
      <root>
        <mxCell id="0" />
        <mxCell id="1" parent="0" />
        <mxCell id="SaqAZSWc51wPuimI3QSf-3" style="edgeStyle=orthogonalEdgeStyle;rounded=0;orthogonalLoop=1;jettySize=auto;html=1;" parent="1" source="SaqAZSWc51wPuimI3QSf-1" target="SaqAZSWc51wPuimI3QSf-2" edge="1">
          <mxGeometry relative="1" as="geometry" />
        </mxCell>
        <mxCell id="SaqAZSWc51wPuimI3QSf-1" value="Подана претензия" style="shape=hexagon;perimeter=hexagonPerimeter2;whiteSpace=wrap;html=1;fixedSize=1;fillColor=#f8cecc;strokeColor=#b85450;" parent="1" vertex="1">
          <mxGeometry x="365" y="30" width="120" height="80" as="geometry" />
        </mxCell>
        <mxCell id="SaqAZSWc51wPuimI3QSf-5" style="edgeStyle=orthogonalEdgeStyle;rounded=0;orthogonalLoop=1;jettySize=auto;html=1;entryX=0.5;entryY=0;entryDx=0;entryDy=0;" parent="1" source="SaqAZSWc51wPuimI3QSf-2" target="SaqAZSWc51wPuimI3QSf-4" edge="1">
          <mxGeometry relative="1" as="geometry" />
        </mxCell>
        <mxCell id="SaqAZSWc51wPuimI3QSf-23" style="edgeStyle=orthogonalEdgeStyle;rounded=0;orthogonalLoop=1;jettySize=auto;html=1;entryX=0;entryY=0.5;entryDx=0;entryDy=0;dashed=1;dashPattern=8 8;endArrow=none;startFill=0;" parent="1" source="SaqAZSWc51wPuimI3QSf-2" target="SaqAZSWc51wPuimI3QSf-22" edge="1">
          <mxGeometry relative="1" as="geometry" />
        </mxCell>
        <mxCell id="SaqAZSWc51wPuimI3QSf-2" value="Принятие претензии" style="rounded=1;whiteSpace=wrap;html=1;fillColor=#d5e8d4;strokeColor=#82b366;" parent="1" vertex="1">
          <mxGeometry x="365" y="170" width="120" height="60" as="geometry" />
        </mxCell>
        <mxCell id="SaqAZSWc51wPuimI3QSf-7" style="edgeStyle=orthogonalEdgeStyle;rounded=0;orthogonalLoop=1;jettySize=auto;html=1;entryX=0.5;entryY=0;entryDx=0;entryDy=0;" parent="1" source="SaqAZSWc51wPuimI3QSf-4" target="SaqAZSWc51wPuimI3QSf-6" edge="1">
          <mxGeometry relative="1" as="geometry" />
        </mxCell>
        <mxCell id="SaqAZSWc51wPuimI3QSf-4" value="Претензия принята продавцом" style="shape=hexagon;perimeter=hexagonPerimeter2;whiteSpace=wrap;html=1;fixedSize=1;fillColor=#f8cecc;strokeColor=#b85450;" parent="1" vertex="1">
          <mxGeometry x="365" y="290" width="120" height="80" as="geometry" />
        </mxCell>
        <mxCell id="SaqAZSWc51wPuimI3QSf-9" style="edgeStyle=orthogonalEdgeStyle;rounded=0;orthogonalLoop=1;jettySize=auto;html=1;" parent="1" source="SaqAZSWc51wPuimI3QSf-6" target="SaqAZSWc51wPuimI3QSf-8" edge="1">
          <mxGeometry relative="1" as="geometry" />
        </mxCell>
        <mxCell id="SaqAZSWc51wPuimI3QSf-27" style="edgeStyle=orthogonalEdgeStyle;rounded=0;orthogonalLoop=1;jettySize=auto;html=1;entryX=0;entryY=0.5;entryDx=0;entryDy=0;dashed=1;dashPattern=8 8;endArrow=none;startFill=0;" parent="1" source="SaqAZSWc51wPuimI3QSf-6" target="SaqAZSWc51wPuimI3QSf-26" edge="1">
          <mxGeometry relative="1" as="geometry">
            <Array as="points">
              <mxPoint x="550" y="460" />
              <mxPoint x="550" y="395" />
            </Array>
          </mxGeometry>
        </mxCell>
        <mxCell id="SaqAZSWc51wPuimI3QSf-29" style="edgeStyle=orthogonalEdgeStyle;rounded=0;orthogonalLoop=1;jettySize=auto;html=1;entryX=0;entryY=0.5;entryDx=0;entryDy=0;dashed=1;dashPattern=8 8;endArrow=none;startFill=0;" parent="1" source="SaqAZSWc51wPuimI3QSf-6" edge="1">
          <mxGeometry relative="1" as="geometry">
            <Array as="points">
              <mxPoint x="550" y="460" />
              <mxPoint x="550" y="500" />
            </Array>
            <mxPoint x="750" y="500" as="targetPoint" />
          </mxGeometry>
        </mxCell>
        <mxCell id="SaqAZSWc51wPuimI3QSf-6" value="Регистрация претензии в системе" style="rounded=1;whiteSpace=wrap;html=1;fillColor=#d5e8d4;strokeColor=#82b366;" parent="1" vertex="1">
          <mxGeometry x="365" y="430" width="120" height="60" as="geometry" />
        </mxCell>
        <mxCell id="SaqAZSWc51wPuimI3QSf-11" style="edgeStyle=orthogonalEdgeStyle;rounded=0;orthogonalLoop=1;jettySize=auto;html=1;entryX=0.5;entryY=0;entryDx=0;entryDy=0;" parent="1" source="SaqAZSWc51wPuimI3QSf-8" target="SaqAZSWc51wPuimI3QSf-10" edge="1">
          <mxGeometry relative="1" as="geometry" />
        </mxCell>
        <mxCell id="SaqAZSWc51wPuimI3QSf-8" value="Претензия зарегистрирована" style="shape=hexagon;perimeter=hexagonPerimeter2;whiteSpace=wrap;html=1;fixedSize=1;fillColor=#f8cecc;strokeColor=#b85450;" parent="1" vertex="1">
          <mxGeometry x="365" y="550" width="120" height="80" as="geometry" />
        </mxCell>
        <mxCell id="SaqAZSWc51wPuimI3QSf-13" style="edgeStyle=orthogonalEdgeStyle;rounded=0;orthogonalLoop=1;jettySize=auto;html=1;entryX=0.5;entryY=0;entryDx=0;entryDy=0;" parent="1" source="SaqAZSWc51wPuimI3QSf-10" target="SaqAZSWc51wPuimI3QSf-12" edge="1">
          <mxGeometry relative="1" as="geometry" />
        </mxCell>
        <mxCell id="SaqAZSWc51wPuimI3QSf-31" style="edgeStyle=orthogonalEdgeStyle;rounded=0;orthogonalLoop=1;jettySize=auto;html=1;entryX=1;entryY=0.3;entryDx=0;entryDy=0;dashed=1;dashPattern=8 8;" parent="1" source="SaqAZSWc51wPuimI3QSf-10" target="SaqAZSWc51wPuimI3QSf-30" edge="1">
          <mxGeometry relative="1" as="geometry" />
        </mxCell>
        <mxCell id="SaqAZSWc51wPuimI3QSf-33" style="edgeStyle=orthogonalEdgeStyle;rounded=0;orthogonalLoop=1;jettySize=auto;html=1;entryX=0;entryY=0.5;entryDx=0;entryDy=0;dashed=1;dashPattern=8 8;endArrow=none;startFill=0;" parent="1" source="SaqAZSWc51wPuimI3QSf-10" target="SaqAZSWc51wPuimI3QSf-32" edge="1">
          <mxGeometry relative="1" as="geometry" />
        </mxCell>
        <mxCell id="SaqAZSWc51wPuimI3QSf-10" value="Анализ претензии и товара" style="rounded=1;whiteSpace=wrap;html=1;fillColor=#d5e8d4;strokeColor=#82b366;" parent="1" vertex="1">
          <mxGeometry x="365" y="690" width="120" height="60" as="geometry" />
        </mxCell>
        <mxCell id="SaqAZSWc51wPuimI3QSf-15" style="edgeStyle=orthogonalEdgeStyle;rounded=0;orthogonalLoop=1;jettySize=auto;html=1;entryX=0.5;entryY=0;entryDx=0;entryDy=0;" parent="1" source="SaqAZSWc51wPuimI3QSf-12" target="SaqAZSWc51wPuimI3QSf-14" edge="1">
          <mxGeometry relative="1" as="geometry" />
        </mxCell>
        <mxCell id="SaqAZSWc51wPuimI3QSf-12" value="Необходимость принятия решения по претензии" style="shape=hexagon;perimeter=hexagonPerimeter2;whiteSpace=wrap;html=1;fixedSize=1;fillColor=#f8cecc;strokeColor=#b85450;" parent="1" vertex="1">
          <mxGeometry x="365" y="810" width="120" height="80" as="geometry" />
        </mxCell>
        <mxCell id="SaqAZSWc51wPuimI3QSf-18" style="edgeStyle=orthogonalEdgeStyle;rounded=0;orthogonalLoop=1;jettySize=auto;html=1;entryX=0.5;entryY=0;entryDx=0;entryDy=0;" parent="1" source="SaqAZSWc51wPuimI3QSf-14" target="SaqAZSWc51wPuimI3QSf-16" edge="1">
          <mxGeometry relative="1" as="geometry" />
        </mxCell>
        <mxCell id="SaqAZSWc51wPuimI3QSf-19" style="edgeStyle=orthogonalEdgeStyle;rounded=0;orthogonalLoop=1;jettySize=auto;html=1;entryX=0.5;entryY=0;entryDx=0;entryDy=0;" parent="1" source="SaqAZSWc51wPuimI3QSf-14" target="SaqAZSWc51wPuimI3QSf-17" edge="1">
          <mxGeometry relative="1" as="geometry" />
        </mxCell>
        <mxCell id="SaqAZSWc51wPuimI3QSf-14" value="X" style="ellipse;whiteSpace=wrap;html=1;aspect=fixed;" parent="1" vertex="1">
          <mxGeometry x="410" y="910" width="30" height="30" as="geometry" />
        </mxCell>
        <mxCell id="SaqAZSWc51wPuimI3QSf-16" value="Претензия подлежит удовлетворению" style="shape=hexagon;perimeter=hexagonPerimeter2;whiteSpace=wrap;html=1;fixedSize=1;fillColor=#f8cecc;strokeColor=#b85450;" parent="1" vertex="1">
          <mxGeometry x="220" y="1000" width="120" height="80" as="geometry" />
        </mxCell>
        <mxCell id="SaqAZSWc51wPuimI3QSf-17" value="Требуется проведение экспертизы" style="shape=hexagon;perimeter=hexagonPerimeter2;whiteSpace=wrap;html=1;fixedSize=1;fillColor=#f8cecc;strokeColor=#b85450;" parent="1" vertex="1">
          <mxGeometry x="510" y="1000" width="120" height="80" as="geometry" />
        </mxCell>
        <mxCell id="SaqAZSWc51wPuimI3QSf-22" value="Менеджер по возвратам и обмену" style="ellipse;whiteSpace=wrap;html=1;fillColor=#fff2cc;strokeColor=#d6b656;" parent="1" vertex="1">
          <mxGeometry x="620" y="150" width="120" height="50" as="geometry" />
        </mxCell>
        <mxCell id="SaqAZSWc51wPuimI3QSf-24" value="Претензия" style="strokeWidth=2;html=1;shape=mxgraph.flowchart.multi-document;whiteSpace=wrap;" parent="1" vertex="1">
          <mxGeometry x="150" y="150" width="88" height="60" as="geometry" />
        </mxCell>
        <mxCell id="SaqAZSWc51wPuimI3QSf-25" style="edgeStyle=orthogonalEdgeStyle;rounded=0;orthogonalLoop=1;jettySize=auto;html=1;entryX=1;entryY=0.5;entryDx=0;entryDy=0;entryPerimeter=0;dashed=1;dashPattern=8 8;" parent="1" source="SaqAZSWc51wPuimI3QSf-2" target="SaqAZSWc51wPuimI3QSf-24" edge="1">
          <mxGeometry relative="1" as="geometry" />
        </mxCell>
        <mxCell id="SaqAZSWc51wPuimI3QSf-26" value="Менеджер по возвратам и обмену" style="ellipse;whiteSpace=wrap;html=1;fillColor=#fff2cc;strokeColor=#d6b656;" parent="1" vertex="1">
          <mxGeometry x="730" y="370" width="120" height="50" as="geometry" />
        </mxCell>
        <mxCell id="SaqAZSWc51wPuimI3QSf-30" value="БД истории заказов" style="shape=datastore;whiteSpace=wrap;html=1;" parent="1" vertex="1">
          <mxGeometry x="100" y="640" width="100" height="70" as="geometry" />
        </mxCell>
        <mxCell id="SaqAZSWc51wPuimI3QSf-32" value="Юрист / Менеджер" style="ellipse;whiteSpace=wrap;html=1;fillColor=#fff2cc;strokeColor=#d6b656;" parent="1" vertex="1">
          <mxGeometry x="600" y="650" width="160" height="50" as="geometry" />
        </mxCell>
        <UserObject label="" link="data:page/id,3f3enouWgIFnuY4t2mjz" id="4Bs9jK-UIVHgwZVFfDhU-1">
          <mxCell style="verticalLabelPosition=bottom;verticalAlign=top;html=1;shape=offPageConnector;rounded=0;size=0.5;" parent="1" vertex="1">
            <mxGeometry x="650" y="1060" width="40" height="40" as="geometry" />
          </mxCell>
        </UserObject>
        <UserObject label="" link="data:page/id,AWSaUjdTE6IZkqcTg7B1" id="aZ5EkEis0qYt2Wq-Poml-1">
          <mxCell style="shape=offPageConnector;whiteSpace=wrap;html=1;" parent="1" vertex="1">
            <mxGeometry x="174" y="1060" width="40" height="40" as="geometry" />
          </mxCell>
        </UserObject>
        <mxCell id="RGuVyJvpShx9fDXNqz8P-1" value="&lt;div&gt;Модуль принятия решений&lt;/div&gt;" style="shape=process;whiteSpace=wrap;html=1;backgroundOutline=1;fillColor=#dae8fc;strokeColor=#6c8ebf;" vertex="1" parent="1">
          <mxGeometry x="750" y="470" width="120" height="60" as="geometry" />
        </mxCell>
      </root>
    </mxGraphModel>
  </diagram>
  <diagram id="3f3enouWgIFnuY4t2mjz" name="Page-2">
    <mxGraphModel dx="1501" dy="960" grid="1" gridSize="10" guides="1" tooltips="1" connect="1" arrows="1" fold="1" page="1" pageScale="1" pageWidth="850" pageHeight="1100" math="0" shadow="0">
      <root>
        <mxCell id="0" />
        <mxCell id="1" parent="0" />
        <mxCell id="v0thb5BIgWiaAVR0nqDr-2" style="edgeStyle=orthogonalEdgeStyle;rounded=0;orthogonalLoop=1;jettySize=auto;html=1;" parent="1" source="LJ6vwlZiqYHPI3dzd2HZ-1" target="v0thb5BIgWiaAVR0nqDr-1" edge="1">
          <mxGeometry relative="1" as="geometry" />
        </mxCell>
        <mxCell id="LJ6vwlZiqYHPI3dzd2HZ-1" value="Требуется проведение экспертизы" style="shape=hexagon;perimeter=hexagonPerimeter2;whiteSpace=wrap;html=1;fixedSize=1;fillColor=#f8cecc;strokeColor=#b85450;" parent="1" vertex="1">
          <mxGeometry x="350" y="260" width="120" height="80" as="geometry" />
        </mxCell>
        <mxCell id="v0thb5BIgWiaAVR0nqDr-4" style="edgeStyle=orthogonalEdgeStyle;rounded=0;orthogonalLoop=1;jettySize=auto;html=1;" parent="1" source="v0thb5BIgWiaAVR0nqDr-1" target="v0thb5BIgWiaAVR0nqDr-3" edge="1">
          <mxGeometry relative="1" as="geometry" />
        </mxCell>
        <mxCell id="Hy6_nSFWcL2zEaQyvyMk-2" style="edgeStyle=orthogonalEdgeStyle;rounded=0;orthogonalLoop=1;jettySize=auto;html=1;entryX=0;entryY=0.5;entryDx=0;entryDy=0;dashed=1;dashPattern=8 8;endArrow=none;startFill=0;" parent="1" source="v0thb5BIgWiaAVR0nqDr-1" target="Hy6_nSFWcL2zEaQyvyMk-1" edge="1">
          <mxGeometry relative="1" as="geometry" />
        </mxCell>
        <mxCell id="v0thb5BIgWiaAVR0nqDr-1" value="Назначение экспертизы" style="rounded=1;whiteSpace=wrap;html=1;fillColor=#d5e8d4;strokeColor=#82b366;" parent="1" vertex="1">
          <mxGeometry x="350" y="390" width="120" height="60" as="geometry" />
        </mxCell>
        <mxCell id="v0thb5BIgWiaAVR0nqDr-6" style="edgeStyle=orthogonalEdgeStyle;rounded=0;orthogonalLoop=1;jettySize=auto;html=1;entryX=0.5;entryY=0;entryDx=0;entryDy=0;" parent="1" source="v0thb5BIgWiaAVR0nqDr-3" target="v0thb5BIgWiaAVR0nqDr-5" edge="1">
          <mxGeometry relative="1" as="geometry" />
        </mxCell>
        <mxCell id="v0thb5BIgWiaAVR0nqDr-3" value="Экспертиза назначена" style="shape=hexagon;perimeter=hexagonPerimeter2;whiteSpace=wrap;html=1;fixedSize=1;fillColor=#f8cecc;strokeColor=#b85450;" parent="1" vertex="1">
          <mxGeometry x="350" y="500" width="120" height="80" as="geometry" />
        </mxCell>
        <mxCell id="v0thb5BIgWiaAVR0nqDr-8" style="edgeStyle=orthogonalEdgeStyle;rounded=0;orthogonalLoop=1;jettySize=auto;html=1;entryX=0.5;entryY=0;entryDx=0;entryDy=0;" parent="1" source="v0thb5BIgWiaAVR0nqDr-5" target="v0thb5BIgWiaAVR0nqDr-7" edge="1">
          <mxGeometry relative="1" as="geometry" />
        </mxCell>
        <mxCell id="dSglg1G-W338G6QTZfKT-2" style="edgeStyle=orthogonalEdgeStyle;rounded=0;orthogonalLoop=1;jettySize=auto;html=1;entryX=0;entryY=0.5;entryDx=0;entryDy=0;dashed=1;dashPattern=8 8;endArrow=none;startFill=0;" parent="1" source="v0thb5BIgWiaAVR0nqDr-5" target="dSglg1G-W338G6QTZfKT-1" edge="1">
          <mxGeometry relative="1" as="geometry" />
        </mxCell>
        <mxCell id="v0thb5BIgWiaAVR0nqDr-5" value="Проведение экспертизы" style="rounded=1;whiteSpace=wrap;html=1;fillColor=#d5e8d4;strokeColor=#82b366;" parent="1" vertex="1">
          <mxGeometry x="350" y="630" width="120" height="60" as="geometry" />
        </mxCell>
        <mxCell id="v0thb5BIgWiaAVR0nqDr-10" style="edgeStyle=orthogonalEdgeStyle;rounded=0;orthogonalLoop=1;jettySize=auto;html=1;entryX=0.5;entryY=0;entryDx=0;entryDy=0;" parent="1" source="v0thb5BIgWiaAVR0nqDr-7" target="v0thb5BIgWiaAVR0nqDr-9" edge="1">
          <mxGeometry relative="1" as="geometry" />
        </mxCell>
        <mxCell id="v0thb5BIgWiaAVR0nqDr-7" value="Получено заключение эксперта" style="shape=hexagon;perimeter=hexagonPerimeter2;whiteSpace=wrap;html=1;fixedSize=1;fillColor=#f8cecc;strokeColor=#b85450;" parent="1" vertex="1">
          <mxGeometry x="350" y="740" width="120" height="80" as="geometry" />
        </mxCell>
        <mxCell id="v0thb5BIgWiaAVR0nqDr-12" style="edgeStyle=orthogonalEdgeStyle;rounded=0;orthogonalLoop=1;jettySize=auto;html=1;entryX=0.5;entryY=0;entryDx=0;entryDy=0;" parent="1" source="v0thb5BIgWiaAVR0nqDr-9" target="vVECQ8sF79JSPqYKHz1i-4" edge="1">
          <mxGeometry relative="1" as="geometry">
            <mxPoint x="410" y="980" as="targetPoint" />
          </mxGeometry>
        </mxCell>
        <mxCell id="iWfy70Xpf-TO3FYfVSwz-2" style="edgeStyle=orthogonalEdgeStyle;rounded=0;orthogonalLoop=1;jettySize=auto;html=1;entryX=0;entryY=0.5;entryDx=0;entryDy=0;dashed=1;dashPattern=8 8;endArrow=none;startFill=0;" parent="1" source="v0thb5BIgWiaAVR0nqDr-9" target="DnKDd9_09k-j2BSRtWvl-1" edge="1">
          <mxGeometry relative="1" as="geometry">
            <Array as="points">
              <mxPoint x="530" y="900" />
              <mxPoint x="530" y="875" />
            </Array>
          </mxGeometry>
        </mxCell>
        <mxCell id="iWfy70Xpf-TO3FYfVSwz-3" style="edgeStyle=orthogonalEdgeStyle;rounded=0;orthogonalLoop=1;jettySize=auto;html=1;entryX=0;entryY=0.5;entryDx=0;entryDy=0;dashed=1;dashPattern=8 8;endArrow=none;startFill=0;" parent="1" source="v0thb5BIgWiaAVR0nqDr-9" edge="1">
          <mxGeometry relative="1" as="geometry">
            <Array as="points">
              <mxPoint x="530" y="900" />
              <mxPoint x="530" y="970" />
            </Array>
            <mxPoint x="640" y="970" as="targetPoint" />
          </mxGeometry>
        </mxCell>
        <mxCell id="v0thb5BIgWiaAVR0nqDr-9" value="Принятие окончательного решения" style="rounded=1;whiteSpace=wrap;html=1;fillColor=#d5e8d4;strokeColor=#82b366;" parent="1" vertex="1">
          <mxGeometry x="350" y="870" width="120" height="60" as="geometry" />
        </mxCell>
        <mxCell id="Hy6_nSFWcL2zEaQyvyMk-1" value="Менеджер / Юрист" style="ellipse;whiteSpace=wrap;html=1;fillColor=#fff2cc;strokeColor=#d6b656;" parent="1" vertex="1">
          <mxGeometry x="600" y="360" width="200" height="50" as="geometry" />
        </mxCell>
        <mxCell id="Hy6_nSFWcL2zEaQyvyMk-3" value="Направление на экспертизу" style="strokeWidth=2;html=1;shape=mxgraph.flowchart.multi-document;whiteSpace=wrap;" parent="1" vertex="1">
          <mxGeometry x="120" y="355" width="130" height="60" as="geometry" />
        </mxCell>
        <mxCell id="Hy6_nSFWcL2zEaQyvyMk-4" style="edgeStyle=orthogonalEdgeStyle;rounded=0;orthogonalLoop=1;jettySize=auto;html=1;entryX=1;entryY=0.5;entryDx=0;entryDy=0;entryPerimeter=0;dashed=1;dashPattern=8 8;" parent="1" source="v0thb5BIgWiaAVR0nqDr-1" target="Hy6_nSFWcL2zEaQyvyMk-3" edge="1">
          <mxGeometry relative="1" as="geometry" />
        </mxCell>
        <mxCell id="dSglg1G-W338G6QTZfKT-1" value="Эксперт" style="ellipse;whiteSpace=wrap;html=1;fillColor=#fff2cc;strokeColor=#d6b656;" parent="1" vertex="1">
          <mxGeometry x="600" y="580" width="200" height="50" as="geometry" />
        </mxCell>
        <mxCell id="DnKDd9_09k-j2BSRtWvl-1" value="Менеджер / Юрист" style="ellipse;whiteSpace=wrap;html=1;fillColor=#fff2cc;strokeColor=#d6b656;" parent="1" vertex="1">
          <mxGeometry x="580" y="850" width="200" height="50" as="geometry" />
        </mxCell>
        <mxCell id="Le-zyE4rRHaTKEbuOiCG-21" value="&lt;div&gt;Модуль принятия решений&lt;/div&gt;" style="shape=process;whiteSpace=wrap;html=1;backgroundOutline=1;fillColor=#dae8fc;strokeColor=#6c8ebf;" vertex="1" parent="1">
          <mxGeometry x="640" y="940" width="120" height="60" as="geometry" />
        </mxCell>
        <mxCell id="w643zJrZNr4u8KpJ5s9w-3" style="edgeStyle=orthogonalEdgeStyle;rounded=0;orthogonalLoop=1;jettySize=auto;html=1;entryX=0.5;entryY=0;entryDx=0;entryDy=0;" edge="1" parent="1" source="vVECQ8sF79JSPqYKHz1i-4" target="w643zJrZNr4u8KpJ5s9w-2">
          <mxGeometry relative="1" as="geometry" />
        </mxCell>
        <mxCell id="w643zJrZNr4u8KpJ5s9w-4" style="edgeStyle=orthogonalEdgeStyle;rounded=0;orthogonalLoop=1;jettySize=auto;html=1;entryX=0.5;entryY=0;entryDx=0;entryDy=0;" edge="1" parent="1" source="vVECQ8sF79JSPqYKHz1i-4" target="w643zJrZNr4u8KpJ5s9w-1">
          <mxGeometry relative="1" as="geometry" />
        </mxCell>
        <mxCell id="vVECQ8sF79JSPqYKHz1i-4" value="X" style="ellipse;whiteSpace=wrap;html=1;aspect=fixed;" vertex="1" parent="1">
          <mxGeometry x="395" y="970" width="30" height="30" as="geometry" />
        </mxCell>
        <mxCell id="vVECQ8sF79JSPqYKHz1i-5" style="edgeStyle=orthogonalEdgeStyle;rounded=0;orthogonalLoop=1;jettySize=auto;html=1;entryX=0.5;entryY=0;entryDx=0;entryDy=0;" edge="1" parent="1" source="vVECQ8sF79JSPqYKHz1i-8" target="vVECQ8sF79JSPqYKHz1i-9">
          <mxGeometry relative="1" as="geometry" />
        </mxCell>
        <mxCell id="vVECQ8sF79JSPqYKHz1i-6" style="edgeStyle=orthogonalEdgeStyle;rounded=0;orthogonalLoop=1;jettySize=auto;html=1;entryX=0;entryY=0.5;entryDx=0;entryDy=0;dashed=1;dashPattern=8 8;endArrow=none;startFill=0;" edge="1" parent="1" source="vVECQ8sF79JSPqYKHz1i-8" target="vVECQ8sF79JSPqYKHz1i-32">
          <mxGeometry relative="1" as="geometry">
            <Array as="points">
              <mxPoint x="705" y="1189" />
              <mxPoint x="705" y="1134" />
            </Array>
          </mxGeometry>
        </mxCell>
        <mxCell id="vVECQ8sF79JSPqYKHz1i-7" style="edgeStyle=orthogonalEdgeStyle;rounded=0;orthogonalLoop=1;jettySize=auto;html=1;entryX=0;entryY=0.5;entryDx=0;entryDy=0;dashed=1;dashPattern=8 8;endArrow=none;startFill=0;" edge="1" parent="1" source="vVECQ8sF79JSPqYKHz1i-8" target="vVECQ8sF79JSPqYKHz1i-33">
          <mxGeometry relative="1" as="geometry">
            <Array as="points">
              <mxPoint x="705" y="1189" />
              <mxPoint x="705" y="1239" />
            </Array>
          </mxGeometry>
        </mxCell>
        <mxCell id="vVECQ8sF79JSPqYKHz1i-8" value="Оповещение клиента об отказе" style="rounded=1;whiteSpace=wrap;html=1;fillColor=#d5e8d4;strokeColor=#82b366;" vertex="1" parent="1">
          <mxGeometry x="520" y="1159" width="120" height="60" as="geometry" />
        </mxCell>
        <mxCell id="vVECQ8sF79JSPqYKHz1i-9" value="Клиент уведомлен" style="shape=hexagon;perimeter=hexagonPerimeter2;whiteSpace=wrap;html=1;fixedSize=1;fillColor=#f8cecc;strokeColor=#b85450;" vertex="1" parent="1">
          <mxGeometry x="520" y="1269" width="120" height="80" as="geometry" />
        </mxCell>
        <mxCell id="vVECQ8sF79JSPqYKHz1i-32" value="Сотрудник клиентского сервиса" style="ellipse;whiteSpace=wrap;html=1;fillColor=#fff2cc;strokeColor=#d6b656;" vertex="1" parent="1">
          <mxGeometry x="765" y="1099" width="120" height="70" as="geometry" />
        </mxCell>
        <mxCell id="vVECQ8sF79JSPqYKHz1i-33" value="CRM или Система уведомлений клиентов" style="shape=process;whiteSpace=wrap;html=1;backgroundOutline=1;fillColor=#dae8fc;strokeColor=#6c8ebf;" vertex="1" parent="1">
          <mxGeometry x="755" y="1209" width="120" height="60" as="geometry" />
        </mxCell>
        <mxCell id="w643zJrZNr4u8KpJ5s9w-1" value="Принято решение удовлетворить требования клиента" style="shape=hexagon;perimeter=hexagonPerimeter2;whiteSpace=wrap;html=1;fixedSize=1;fillColor=#f8cecc;strokeColor=#b85450;" vertex="1" parent="1">
          <mxGeometry x="170" y="1020" width="120" height="80" as="geometry" />
        </mxCell>
        <mxCell id="w643zJrZNr4u8KpJ5s9w-5" style="edgeStyle=orthogonalEdgeStyle;rounded=0;orthogonalLoop=1;jettySize=auto;html=1;entryX=0.5;entryY=0;entryDx=0;entryDy=0;" edge="1" parent="1" source="w643zJrZNr4u8KpJ5s9w-2" target="vVECQ8sF79JSPqYKHz1i-8">
          <mxGeometry relative="1" as="geometry" />
        </mxCell>
        <mxCell id="w643zJrZNr4u8KpJ5s9w-2" value="Принято решение отказать требованиям клиента" style="shape=hexagon;perimeter=hexagonPerimeter2;whiteSpace=wrap;html=1;fixedSize=1;fillColor=#f8cecc;strokeColor=#b85450;" vertex="1" parent="1">
          <mxGeometry x="520" y="1029" width="120" height="80" as="geometry" />
        </mxCell>
        <UserObject label="" link="data:page/id,AWSaUjdTE6IZkqcTg7B1" id="Y5M5ErfsKsGg_OK4qsfx-1">
          <mxCell style="shape=offPageConnector;whiteSpace=wrap;html=1;" vertex="1" parent="1">
            <mxGeometry x="130" y="1080" width="40" height="40" as="geometry" />
          </mxCell>
        </UserObject>
      </root>
    </mxGraphModel>
  </diagram>
  <diagram id="AWSaUjdTE6IZkqcTg7B1" name="Page-3">
    <mxGraphModel dx="1240" dy="793" grid="1" gridSize="10" guides="1" tooltips="1" connect="1" arrows="1" fold="1" page="1" pageScale="1" pageWidth="850" pageHeight="1100" math="0" shadow="0">
      <root>
        <mxCell id="0" />
        <mxCell id="1" parent="0" />
        <mxCell id="P6BgHUXXKifzCLDh7rnW-1" value="Претензия подлежит удовлетворению" style="shape=hexagon;perimeter=hexagonPerimeter2;whiteSpace=wrap;html=1;fixedSize=1;fillColor=#f8cecc;strokeColor=#b85450;" parent="1" vertex="1">
          <mxGeometry x="365" y="270" width="120" height="80" as="geometry" />
        </mxCell>
        <mxCell id="y2Ey-2w7NmABdUtugVNo-7" style="edgeStyle=orthogonalEdgeStyle;rounded=0;orthogonalLoop=1;jettySize=auto;html=1;entryX=0.5;entryY=0;entryDx=0;entryDy=0;" edge="1" parent="1" source="y2Ey-2w7NmABdUtugVNo-9" target="y2Ey-2w7NmABdUtugVNo-14">
          <mxGeometry relative="1" as="geometry" />
        </mxCell>
        <mxCell id="y2Ey-2w7NmABdUtugVNo-8" style="edgeStyle=orthogonalEdgeStyle;rounded=0;orthogonalLoop=1;jettySize=auto;html=1;entryX=1;entryY=0.5;entryDx=0;entryDy=0;dashed=1;dashPattern=8 8;endArrow=none;startFill=0;" edge="1" parent="1" source="y2Ey-2w7NmABdUtugVNo-9" target="y2Ey-2w7NmABdUtugVNo-24">
          <mxGeometry relative="1" as="geometry">
            <Array as="points">
              <mxPoint x="331" y="430" />
              <mxPoint x="331" y="380" />
            </Array>
          </mxGeometry>
        </mxCell>
        <mxCell id="y2Ey-2w7NmABdUtugVNo-29" style="edgeStyle=orthogonalEdgeStyle;rounded=0;orthogonalLoop=1;jettySize=auto;html=1;entryX=1;entryY=0.5;entryDx=0;entryDy=0;dashed=1;dashPattern=8 8;endArrow=none;startFill=0;" edge="1" parent="1" source="y2Ey-2w7NmABdUtugVNo-9" target="y2Ey-2w7NmABdUtugVNo-25">
          <mxGeometry relative="1" as="geometry">
            <Array as="points">
              <mxPoint x="331" y="430" />
              <mxPoint x="331" y="470" />
            </Array>
          </mxGeometry>
        </mxCell>
        <mxCell id="y2Ey-2w7NmABdUtugVNo-9" value="Подготовка в возврату/обмену" style="rounded=1;whiteSpace=wrap;html=1;fillColor=#d5e8d4;strokeColor=#82b366;" vertex="1" parent="1">
          <mxGeometry x="366" y="400" width="120" height="60" as="geometry" />
        </mxCell>
        <mxCell id="y2Ey-2w7NmABdUtugVNo-10" style="edgeStyle=orthogonalEdgeStyle;rounded=0;orthogonalLoop=1;jettySize=auto;html=1;" edge="1" parent="1" source="y2Ey-2w7NmABdUtugVNo-11" target="y2Ey-2w7NmABdUtugVNo-18">
          <mxGeometry relative="1" as="geometry" />
        </mxCell>
        <mxCell id="y2Ey-2w7NmABdUtugVNo-11" value="Требуется возврат средств" style="shape=hexagon;perimeter=hexagonPerimeter2;whiteSpace=wrap;html=1;fixedSize=1;fillColor=#f8cecc;strokeColor=#b85450;" vertex="1" parent="1">
          <mxGeometry x="256" y="550" width="120" height="80" as="geometry" />
        </mxCell>
        <mxCell id="y2Ey-2w7NmABdUtugVNo-12" style="edgeStyle=orthogonalEdgeStyle;rounded=0;orthogonalLoop=1;jettySize=auto;html=1;entryX=0.5;entryY=0;entryDx=0;entryDy=0;" edge="1" parent="1" source="y2Ey-2w7NmABdUtugVNo-14" target="y2Ey-2w7NmABdUtugVNo-11">
          <mxGeometry relative="1" as="geometry" />
        </mxCell>
        <mxCell id="y2Ey-2w7NmABdUtugVNo-13" style="edgeStyle=orthogonalEdgeStyle;rounded=0;orthogonalLoop=1;jettySize=auto;html=1;entryX=0.5;entryY=0;entryDx=0;entryDy=0;" edge="1" parent="1" source="y2Ey-2w7NmABdUtugVNo-14" target="y2Ey-2w7NmABdUtugVNo-16">
          <mxGeometry relative="1" as="geometry" />
        </mxCell>
        <mxCell id="y2Ey-2w7NmABdUtugVNo-14" value="X" style="ellipse;whiteSpace=wrap;html=1;aspect=fixed;" vertex="1" parent="1">
          <mxGeometry x="411" y="490" width="30" height="30" as="geometry" />
        </mxCell>
        <mxCell id="y2Ey-2w7NmABdUtugVNo-15" style="edgeStyle=orthogonalEdgeStyle;rounded=0;orthogonalLoop=1;jettySize=auto;html=1;entryX=0.5;entryY=0;entryDx=0;entryDy=0;" edge="1" parent="1" source="y2Ey-2w7NmABdUtugVNo-16" target="y2Ey-2w7NmABdUtugVNo-20">
          <mxGeometry relative="1" as="geometry" />
        </mxCell>
        <mxCell id="y2Ey-2w7NmABdUtugVNo-16" value="Требуется обмен товара" style="shape=hexagon;perimeter=hexagonPerimeter2;whiteSpace=wrap;html=1;fixedSize=1;fillColor=#f8cecc;strokeColor=#b85450;" vertex="1" parent="1">
          <mxGeometry x="479" y="550" width="120" height="80" as="geometry" />
        </mxCell>
        <mxCell id="y2Ey-2w7NmABdUtugVNo-17" style="edgeStyle=orthogonalEdgeStyle;rounded=0;orthogonalLoop=1;jettySize=auto;html=1;entryX=0;entryY=0.5;entryDx=0;entryDy=0;exitX=0.5;exitY=1;exitDx=0;exitDy=0;" edge="1" parent="1" source="y2Ey-2w7NmABdUtugVNo-18" target="y2Ey-2w7NmABdUtugVNo-22">
          <mxGeometry relative="1" as="geometry" />
        </mxCell>
        <mxCell id="gtL0Rc-iwrhC6q8jcom7-4" style="edgeStyle=orthogonalEdgeStyle;rounded=0;orthogonalLoop=1;jettySize=auto;html=1;entryX=1.019;entryY=0.508;entryDx=0;entryDy=0;dashed=1;dashPattern=8 8;entryPerimeter=0;endArrow=none;startFill=0;" edge="1" parent="1" source="y2Ey-2w7NmABdUtugVNo-18" target="gtL0Rc-iwrhC6q8jcom7-3">
          <mxGeometry relative="1" as="geometry">
            <mxPoint x="166" y="640" as="targetPoint" />
            <Array as="points">
              <mxPoint x="190" y="710" />
              <mxPoint x="190" y="650" />
            </Array>
          </mxGeometry>
        </mxCell>
        <mxCell id="y2Ey-2w7NmABdUtugVNo-18" value="Возврат средств через кассу" style="rounded=1;whiteSpace=wrap;html=1;fillColor=#d5e8d4;strokeColor=#82b366;" vertex="1" parent="1">
          <mxGeometry x="256" y="680" width="120" height="60" as="geometry" />
        </mxCell>
        <mxCell id="y2Ey-2w7NmABdUtugVNo-19" style="edgeStyle=orthogonalEdgeStyle;rounded=0;orthogonalLoop=1;jettySize=auto;html=1;entryX=1;entryY=0.5;entryDx=0;entryDy=0;exitX=0.5;exitY=1;exitDx=0;exitDy=0;" edge="1" parent="1" source="y2Ey-2w7NmABdUtugVNo-20" target="y2Ey-2w7NmABdUtugVNo-22">
          <mxGeometry relative="1" as="geometry" />
        </mxCell>
        <mxCell id="gtL0Rc-iwrhC6q8jcom7-6" style="edgeStyle=orthogonalEdgeStyle;rounded=0;orthogonalLoop=1;jettySize=auto;html=1;entryX=0;entryY=0.5;entryDx=0;entryDy=0;dashed=1;dashPattern=8 8;endArrow=none;startFill=0;" edge="1" parent="1" source="y2Ey-2w7NmABdUtugVNo-20" target="gtL0Rc-iwrhC6q8jcom7-5">
          <mxGeometry relative="1" as="geometry" />
        </mxCell>
        <mxCell id="y2Ey-2w7NmABdUtugVNo-20" value="Передача нового товара" style="rounded=1;whiteSpace=wrap;html=1;fillColor=#d5e8d4;strokeColor=#82b366;" vertex="1" parent="1">
          <mxGeometry x="479" y="680" width="120" height="60" as="geometry" />
        </mxCell>
        <mxCell id="y2Ey-2w7NmABdUtugVNo-21" style="edgeStyle=orthogonalEdgeStyle;rounded=0;orthogonalLoop=1;jettySize=auto;html=1;" edge="1" parent="1" source="y2Ey-2w7NmABdUtugVNo-22">
          <mxGeometry relative="1" as="geometry">
            <mxPoint x="426" y="850" as="targetPoint" />
          </mxGeometry>
        </mxCell>
        <mxCell id="y2Ey-2w7NmABdUtugVNo-22" value="X" style="ellipse;whiteSpace=wrap;html=1;aspect=fixed;" vertex="1" parent="1">
          <mxGeometry x="411" y="770" width="30" height="30" as="geometry" />
        </mxCell>
        <mxCell id="y2Ey-2w7NmABdUtugVNo-23" value="&#xa;Требование покупателя выполнено&#xa;&#xa;" style="shape=hexagon;perimeter=hexagonPerimeter2;whiteSpace=wrap;html=1;fixedSize=1;fillColor=#f8cecc;strokeColor=#b85450;" vertex="1" parent="1">
          <mxGeometry x="361" y="850" width="120" height="80" as="geometry" />
        </mxCell>
        <mxCell id="y2Ey-2w7NmABdUtugVNo-24" value="Менеджер по возвратам" style="ellipse;whiteSpace=wrap;html=1;fillColor=#fff2cc;strokeColor=#d6b656;" vertex="1" parent="1">
          <mxGeometry x="186" y="350" width="120" height="60" as="geometry" />
        </mxCell>
        <mxCell id="y2Ey-2w7NmABdUtugVNo-25" value="Система учёта претензий" style="shape=process;whiteSpace=wrap;html=1;backgroundOutline=1;fillColor=#dae8fc;strokeColor=#6c8ebf;" vertex="1" parent="1">
          <mxGeometry x="166" y="440" width="120" height="60" as="geometry" />
        </mxCell>
        <mxCell id="gtL0Rc-iwrhC6q8jcom7-3" value="Кассир" style="ellipse;whiteSpace=wrap;html=1;fillColor=#fff2cc;strokeColor=#d6b656;" vertex="1" parent="1">
          <mxGeometry x="60" y="630" width="100" height="40" as="geometry" />
        </mxCell>
        <mxCell id="gtL0Rc-iwrhC6q8jcom7-5" value="Кладовщик" style="ellipse;whiteSpace=wrap;html=1;fillColor=#fff2cc;strokeColor=#d6b656;" vertex="1" parent="1">
          <mxGeometry x="691" y="660" width="100" height="40" as="geometry" />
        </mxCell>
        <mxCell id="SvUoYtUo2wjfqinETCD3-1" value="Накладная на выдачу товара" style="strokeWidth=2;html=1;shape=mxgraph.flowchart.multi-document;whiteSpace=wrap;" vertex="1" parent="1">
          <mxGeometry x="691" y="750" width="124" height="60" as="geometry" />
        </mxCell>
        <mxCell id="SvUoYtUo2wjfqinETCD3-3" style="edgeStyle=orthogonalEdgeStyle;rounded=0;orthogonalLoop=1;jettySize=auto;html=1;entryX=0;entryY=0.5;entryDx=0;entryDy=0;entryPerimeter=0;dashed=1;dashPattern=8 8;" edge="1" parent="1" source="y2Ey-2w7NmABdUtugVNo-20" target="SvUoYtUo2wjfqinETCD3-1">
          <mxGeometry relative="1" as="geometry" />
        </mxCell>
        <mxCell id="wOeu_4g9ERKuNZnvI1cx-6" style="edgeStyle=orthogonalEdgeStyle;rounded=0;orthogonalLoop=1;jettySize=auto;html=1;entryX=0.5;entryY=0;entryDx=0;entryDy=0;" edge="1" parent="1" target="y2Ey-2w7NmABdUtugVNo-9">
          <mxGeometry relative="1" as="geometry">
            <mxPoint x="426" y="350" as="sourcePoint" />
          </mxGeometry>
        </mxCell>
      </root>
    </mxGraphModel>
  </diagram>
</mxfile>
